<svg width="32" height="23" viewBox="0 0 32 23" fill="none" xmlns="http://www.w3.org/2000/svg">
<path d="M1 0.5C0.447715 0.5 0 0.947715 0 1.5C0 2.05228 0.447715 2.5 1 2.5H31C31.5523 2.5 32 2.05228 32 1.5C32 0.947715 31.5523 0.5 31 0.5H1Z" fill="url(#paint0_linear_14_384)"/>
<path d="M1 7.16675C0.447715 7.16675 0 7.61446 0 8.16675C0 8.71903 0.447715 9.16675 1 9.16675H31C31.5523 9.16675 32 8.71903 32 8.16675C32 7.61446 31.5523 7.16675 31 7.16675H1Z" fill="url(#paint1_linear_14_384)"/>
<path d="M0 14.8333C0 14.281 0.447715 13.8333 1 13.8333H31C31.5523 13.8333 32 14.281 32 14.8333C32 15.3855 31.5523 15.8333 31 15.8333H1C0.447715 15.8333 0 15.3855 0 14.8333Z" fill="url(#paint2_linear_14_384)"/>
<path d="M1 20.5C0.447715 20.5 0 20.9477 0 21.5C0 22.0523 0.447715 22.5 1 22.5H31C31.5523 22.5 32 22.0523 32 21.5C32 20.9477 31.5523 20.5 31 20.5H1Z" fill="url(#paint3_linear_14_384)"/>
<defs>
<linearGradient id="paint0_linear_14_384" x1="32" y1="0.5" x2="-1.36335" y2="2.81012" gradientUnits="userSpaceOnUse">
<stop stop-color="#00D2FF"/>
<stop offset="1" stop-color="#3A7BD5"/>
</linearGradient>
<linearGradient id="paint1_linear_14_384" x1="32" y1="0.5" x2="-1.36335" y2="2.81012" gradientUnits="userSpaceOnUse">
<stop stop-color="#00D2FF"/>
<stop offset="1" stop-color="#3A7BD5"/>
</linearGradient>
<linearGradient id="paint2_linear_14_384" x1="32" y1="0.5" x2="-1.36335" y2="2.81012" gradientUnits="userSpaceOnUse">
<stop stop-color="#00D2FF"/>
<stop offset="1" stop-color="#3A7BD5"/>
</linearGradient>
<linearGradient id="paint3_linear_14_384" x1="32" y1="0.5" x2="-1.36335" y2="2.81012" gradientUnits="userSpaceOnUse">
<stop stop-color="#00D2FF"/>
<stop offset="1" stop-color="#3A7BD5"/>
</linearGradient>
</defs>
</svg>
