<svg width="34" height="34" viewBox="0 0 34 34" fill="none" xmlns="http://www.w3.org/2000/svg">
<g id="ri:instagram-fill">
<path id="Vector" d="M18.4563 2.83475C19.4901 2.83078 20.5239 2.84117 21.5574 2.86592L21.8323 2.87583C22.1496 2.88717 22.4627 2.90133 22.8409 2.91833C24.3483 2.98917 25.3768 3.22717 26.2792 3.57708C27.2142 3.93692 28.0018 4.42425 28.7895 5.21192C29.5097 5.91969 30.0671 6.77584 30.4229 7.72083C30.7728 8.62325 31.0108 9.65317 31.0817 11.1605C31.0987 11.5373 31.1128 11.8518 31.1242 12.1692L31.1327 12.444C31.1578 13.477 31.1687 14.5103 31.1653 15.5437L31.1667 16.6005V18.4563C31.1702 19.4901 31.1593 20.5239 31.1341 21.5574L31.1256 21.8323C31.1143 22.1496 31.1001 22.4627 31.0831 22.8409C31.0123 24.3482 30.7714 25.3767 30.4229 26.2792C30.0683 27.2252 29.5107 28.082 28.7895 28.7895C28.0811 29.5096 27.2245 30.067 26.2792 30.4229C25.3768 30.7728 24.3483 31.0108 22.8409 31.0817C22.4627 31.0987 22.1496 31.1128 21.8323 31.1242L21.5574 31.1327C20.5239 31.1579 19.4901 31.1687 18.4563 31.1653L17.3995 31.1667H15.5451C14.5113 31.1702 13.4775 31.1593 12.444 31.1341L12.1692 31.1256C11.8329 31.1134 11.4966 31.0992 11.1605 31.0831C9.65317 31.0123 8.62467 30.7714 7.72084 30.4229C6.77547 30.0678 5.91917 29.5103 5.21192 28.7895C4.4909 28.0816 3.93299 27.2249 3.57709 26.2792C3.22717 25.3767 2.98917 24.3482 2.91834 22.8409C2.90256 22.5048 2.88839 22.1685 2.87584 21.8323L2.86875 21.5574C2.84264 20.5239 2.83083 19.4901 2.83334 18.4563V15.5437C2.82938 14.5104 2.83977 13.477 2.8645 12.444L2.87442 12.1692C2.88575 11.8518 2.89992 11.5373 2.91692 11.1605C2.98775 9.65175 3.22575 8.62467 3.57567 7.72083C3.93178 6.77538 4.49079 5.91946 5.21334 5.21333C5.9201 4.4919 6.77587 3.93348 7.72084 3.57708C8.62467 3.22717 9.65175 2.98917 11.1605 2.91833L12.1692 2.87583L12.444 2.86875C13.477 2.84265 14.5103 2.83084 15.5437 2.83333L18.4563 2.83475ZM17 9.91808C16.0615 9.90481 15.1297 10.0782 14.2587 10.4282C13.3878 10.7782 12.5951 11.2977 11.9267 11.9567C11.2583 12.6157 10.7276 13.401 10.3653 14.2669C10.003 15.1328 9.8165 16.0621 9.8165 17.0007C9.8165 17.9393 10.003 18.8686 10.3653 19.7345C10.7276 20.6004 11.2583 21.3857 11.9267 22.0447C12.5951 22.7037 13.3878 23.2233 14.2587 23.5732C15.1297 23.9232 16.0615 24.0966 17 24.0833C18.8786 24.0833 20.6803 23.3371 22.0087 22.0087C23.3371 20.6803 24.0833 18.8786 24.0833 17C24.0833 15.1214 23.3371 13.3197 22.0087 11.9913C20.6803 10.6629 18.8786 9.91808 17 9.91808ZM17 12.7514C17.5646 12.741 18.1255 12.8432 18.6501 13.052C19.1747 13.2609 19.6525 13.5722 20.0554 13.9677C20.4584 14.3632 20.7785 14.8351 20.997 15.3557C21.2156 15.8764 21.3282 16.4353 21.3283 17C21.3284 17.5646 21.216 18.1236 20.9976 18.6444C20.7792 19.1651 20.4593 19.637 20.0565 20.0327C19.6536 20.4284 19.176 20.7398 18.6514 20.9488C18.1269 21.1578 17.566 21.2602 17.0014 21.25C15.8743 21.25 14.7932 20.8022 13.9962 20.0052C13.1992 19.2082 12.7514 18.1272 12.7514 17C12.7514 15.8728 13.1992 14.7918 13.9962 13.9948C14.7932 13.1978 15.8743 12.75 17.0014 12.75L17 12.7514ZM24.4375 7.79308C23.9805 7.81138 23.5483 8.0058 23.2314 8.33563C22.9145 8.66546 22.7375 9.10511 22.7375 9.5625C22.7375 10.0199 22.9145 10.4595 23.2314 10.7894C23.5483 11.1192 23.9805 11.3136 24.4375 11.3319C24.9072 11.3319 25.3576 11.1453 25.6897 10.8133C26.0218 10.4812 26.2083 10.0307 26.2083 9.56108C26.2083 9.09143 26.0218 8.64101 25.6897 8.30892C25.3576 7.97682 24.9072 7.79025 24.4375 7.79025V7.79308Z" fill="white"/>
</g>
</svg>
