<svg width="33" height="33" viewBox="0 0 33 33" fill="none" xmlns="http://www.w3.org/2000/svg">
<g id="healthicons:money-bag">
<path id="Vector" fill-rule="evenodd" clip-rule="evenodd" d="M16.5268 4.125C13.4214 4.125 10.5923 5.15075 8.91823 5.98881C8.76698 6.06444 8.62604 6.13869 8.49473 6.21019C8.23486 6.35181 8.01348 6.48381 7.83748 6.6L9.74186 9.40363L10.6384 9.76044C14.1419 11.528 18.8402 11.528 22.3444 9.76044L23.3619 9.23244L25.1625 6.6C24.7895 6.35666 24.4017 6.13692 24.0013 5.94206C22.3355 5.11294 19.5738 4.125 16.5275 4.125H16.5268ZM12.0979 7.2985C11.4236 7.17232 10.7575 7.00517 10.1035 6.798C11.6717 6.10156 14.0085 5.3625 16.5268 5.3625C18.271 5.3625 19.9203 5.71725 21.2843 6.16688C19.6859 6.39169 17.9802 6.77325 16.3549 7.24281C15.0762 7.61269 13.5815 7.57281 12.0979 7.2985ZM23.0704 10.78L22.9013 10.8653C19.0472 12.8095 13.9349 12.8095 10.0808 10.8653L9.92061 10.7841C4.13048 17.1373 -0.290146 28.8729 16.5268 28.8729C33.3437 28.8729 28.8152 16.918 23.0704 10.78ZM15.8125 16.5C15.4478 16.5 15.0981 16.6449 14.8402 16.9027C14.5823 17.1606 14.4375 17.5103 14.4375 17.875C14.4375 18.2397 14.5823 18.5894 14.8402 18.8473C15.0981 19.1051 15.4478 19.25 15.8125 19.25V16.5ZM17.1875 15.125V14.4375H15.8125V15.125C15.0831 15.125 14.3837 15.4147 13.8679 15.9305C13.3522 16.4462 13.0625 17.1457 13.0625 17.875C13.0625 18.6043 13.3522 19.3038 13.8679 19.8195C14.3837 20.3353 15.0831 20.625 15.8125 20.625V23.375C15.2144 23.375 14.7049 22.9934 14.5152 22.4586C14.487 22.3711 14.4416 22.2901 14.3816 22.2204C14.3216 22.1508 14.2483 22.0939 14.1659 22.0531C14.0835 22.0123 13.9938 21.9884 13.902 21.9829C13.8103 21.9773 13.7183 21.9903 13.6317 22.0209C13.545 22.0515 13.4653 22.0992 13.3974 22.1611C13.3295 22.2231 13.2747 22.298 13.2362 22.3815C13.1978 22.465 13.1765 22.5554 13.1735 22.6473C13.1706 22.7391 13.1862 22.8307 13.2192 22.9164C13.4089 23.4527 13.7601 23.9169 14.2245 24.2453C14.6889 24.5737 15.2437 24.75 15.8125 24.75V25.4375H17.1875V24.75C17.9168 24.75 18.6163 24.4603 19.132 23.9445C19.6477 23.4288 19.9375 22.7293 19.9375 22C19.9375 21.2707 19.6477 20.5712 19.132 20.0555C18.6163 19.5397 17.9168 19.25 17.1875 19.25V16.5C17.7856 16.5 18.295 16.8816 18.4848 17.4164C18.5129 17.5039 18.5584 17.5849 18.6184 17.6546C18.6783 17.7242 18.7517 17.7811 18.8341 17.8219C18.9164 17.8627 19.0062 17.8866 19.0979 17.8921C19.1897 17.8977 19.2816 17.8847 19.3683 17.8541C19.455 17.8235 19.5346 17.7758 19.6025 17.7139C19.6705 17.6519 19.7253 17.577 19.7637 17.4935C19.8022 17.41 19.8235 17.3196 19.8264 17.2277C19.8293 17.1359 19.8138 17.0443 19.7807 16.9586C19.5911 16.4223 19.2399 15.9581 18.7755 15.6297C18.311 15.3013 17.7563 15.125 17.1875 15.125ZM17.1875 20.625V23.375C17.5522 23.375 17.9019 23.2301 18.1598 22.9723C18.4176 22.7144 18.5625 22.3647 18.5625 22C18.5625 21.6353 18.4176 21.2856 18.1598 21.0277C17.9019 20.7699 17.5522 20.625 17.1875 20.625Z" fill="white"/>
</g>
</svg>
