<svg width="65" height="63" viewBox="0 0 65 63" fill="none" xmlns="http://www.w3.org/2000/svg">
<g id="bxs:server">
<g id="Vector" filter="url(#filter0_d_14_166)">
<path d="M42.1666 20.625H22.8333C22.1924 20.625 21.5777 20.8796 21.1245 21.3328C20.6712 21.786 20.4166 22.4007 20.4166 23.0417V27.875C20.4166 28.5159 20.6712 29.1306 21.1245 29.5838C21.5777 30.0371 22.1924 30.2917 22.8333 30.2917H42.1666C42.8076 30.2917 43.4223 30.0371 43.8755 29.5838C44.3287 29.1306 44.5833 28.5159 44.5833 27.875V23.0417C44.5833 22.4007 44.3287 21.786 43.8755 21.3328C43.4223 20.8796 42.8076 20.625 42.1666 20.625ZM36.125 26.6667H33.7083V24.25H36.125V26.6667ZM40.9583 26.6667H38.5416V24.25H40.9583V26.6667ZM42.1666 32.7083H22.8333C22.1924 32.7083 21.5777 32.9629 21.1245 33.4162C20.6712 33.8694 20.4166 34.4841 20.4166 35.125V39.9583C20.4166 40.5993 20.6712 41.214 21.1245 41.6672C21.5777 42.1204 22.1924 42.375 22.8333 42.375H42.1666C42.8076 42.375 43.4223 42.1204 43.8755 41.6672C44.3287 41.214 44.5833 40.5993 44.5833 39.9583V35.125C44.5833 34.4841 44.3287 33.8694 43.8755 33.4162C43.4223 32.9629 42.8076 32.7083 42.1666 32.7083ZM36.125 38.75H33.7083V36.3333H36.125V38.75ZM40.9583 38.75H38.5416V36.3333H40.9583V38.75Z" fill="url(#paint0_linear_14_166)"/>
</g>
</g>
<defs>
<filter id="filter0_d_14_166" x="0.416626" y="0.625" width="64.1666" height="61.75" filterUnits="userSpaceOnUse" color-interpolation-filters="sRGB">
<feFlood flood-opacity="0" result="BackgroundImageFix"/>
<feColorMatrix in="SourceAlpha" type="matrix" values="0 0 0 0 0 0 0 0 0 0 0 0 0 0 0 0 0 0 127 0" result="hardAlpha"/>
<feOffset/>
<feGaussianBlur stdDeviation="10"/>
<feComposite in2="hardAlpha" operator="out"/>
<feColorMatrix type="matrix" values="0 0 0 0 0 0 0 0 0 0.673171 0 0 0 0 1 0 0 0 1 0"/>
<feBlend mode="normal" in2="BackgroundImageFix" result="effect1_dropShadow_14_166"/>
<feBlend mode="normal" in="SourceGraphic" in2="effect1_dropShadow_14_166" result="shape"/>
</filter>
<linearGradient id="paint0_linear_14_166" x1="44.5833" y1="20.625" x2="19.3368" y2="21.9603" gradientUnits="userSpaceOnUse">
<stop stop-color="#00D2FF"/>
<stop offset="1" stop-color="#3A7BD5"/>
</linearGradient>
</defs>
</svg>
