<svg width="34" height="34" viewBox="0 0 34 34" fill="none" xmlns="http://www.w3.org/2000/svg">
<g id="mingcute:telegram-fill" clip-path="url(#clip0_14_85)">
<g id="Group">
<path id="Vector" fill-rule="evenodd" clip-rule="evenodd" d="M28.0174 6.27578C28.3675 6.12844 28.7507 6.07762 29.127 6.12862C29.5034 6.17961 29.8593 6.33056 30.1575 6.56575C30.4558 6.80095 30.6856 7.11178 30.8229 7.4659C30.9603 7.82002 31.0002 8.20449 30.9386 8.57928L27.7256 28.0684C27.4139 29.9483 25.3512 31.0264 23.6271 30.09C22.185 29.3065 20.043 28.0995 18.1163 26.8401C17.153 26.2097 14.2021 24.191 14.5647 22.7545C14.8764 21.5262 19.8347 16.9107 22.6681 14.1666C23.7801 13.0885 23.273 12.4666 21.9597 13.4583C18.6971 15.9205 13.4626 19.6647 11.7314 20.7187C10.2042 21.648 9.40806 21.8067 8.45606 21.648C6.71923 21.359 5.10848 20.9114 3.79381 20.366C2.01731 19.6293 2.10373 17.187 3.79239 16.4758L28.0174 6.27578Z" fill="white"/>
</g>
</g>
<defs>
<clipPath id="clip0_14_85">
<rect width="34" height="34" fill="white"/>
</clipPath>
</defs>
</svg>
